<?xml version="1.0" encoding="UTF-8"?>
<svg width="22px" height="22px" viewBox="0 0 22 22" version="1.1" xmlns="http://www.w3.org/2000/svg" xmlns:xlink="http://www.w3.org/1999/xlink">
    <!-- Generator: Sketch 59.1 (86144) - https://sketch.com -->
    <title>Icono - Banregio te escucha</title>
    <desc>Created with Sketch.</desc>
    <defs>
        <polygon id="path-1" points="0 0.333182609 21.6656 0.333182609 21.6656 20.3387478 0 20.3387478"></polygon>
        <polygon id="path-3" points="0.97187619 0.159130435 14.3321619 0.159130435 14.3321619 12.5217391 0.97187619 12.5217391"></polygon>
    </defs>
    <g id="Page-1" stroke="none" stroke-width="1" fill="none" fill-rule="evenodd">
        <g id="Desktop-C3-Naranja-digital" transform="translate(-175.000000, -595.000000)">
            <g id="Chat-en-linea" transform="translate(145.000000, 580.000000)">
                <g id="Icono---Banregio-te-escucha" transform="translate(30.000000, 14.000000)">
                    <path d="M15.7976762,6.43826087 L5.86729524,6.43826087 C5.6179619,6.43826087 5.41577143,6.23791304 5.41577143,5.98852174 C5.41577143,5.74017391 5.6179619,5.53982609 5.86729524,5.53982609 L15.7976762,5.53982609 C16.0470095,5.53982609 16.2492,5.74017391 16.2492,5.98852174 C16.2492,6.23791304 16.0470095,6.43826087 15.7976762,6.43826087" id="Fill-1" fill="#FFFFFF"></path>
                    <path d="M10.8326952,10.0349217 L5.86802857,10.0349217 C5.61764762,10.0349217 5.41650476,9.83457391 5.41650476,9.58518261 C5.41650476,9.33683478 5.61764762,9.13648696 5.86802857,9.13648696 L10.8326952,9.13648696 C11.0820286,9.13648696 11.284219,9.33683478 11.284219,9.58518261 C11.284219,9.83457391 11.0820286,10.0349217 10.8326952,10.0349217" id="Fill-3" fill="#FFFFFF"></path>
                    <path d="M17.6033524,14.5308522 L12.1871619,14.5308522 C11.936781,14.5308522 11.7356381,14.3294609 11.7356381,14.081113 C11.7356381,13.8327652 11.936781,13.6313739 12.1871619,13.6313739 L17.6033524,13.6313739 C17.8526857,13.6313739 18.0548762,13.8327652 18.0548762,14.081113 C18.0548762,14.3294609 17.8526857,14.5308522 17.6033524,14.5308522" id="Fill-5" fill="#FFFFFF"></path>
                    <path d="M17.6033524,17.2281391 L12.1871619,17.2281391 C11.936781,17.2281391 11.7356381,17.0277913 11.7356381,16.7784 C11.7356381,16.5300522 11.936781,16.3297043 12.1871619,16.3297043 L17.6033524,16.3297043 C17.8526857,16.3297043 18.0548762,16.5300522 18.0548762,16.7784 C18.0548762,17.0277913 17.8526857,17.2281391 17.6033524,17.2281391" id="Fill-7" fill="#FFFFFF"></path>
                    <path d="M7.67297143,13.6314783 L5.86792381,13.6314783 C5.61859048,13.6314783 5.4164,13.4311304 5.4164,13.1817391 C5.4164,12.9333913 5.61859048,12.7330435 5.86792381,12.7330435 L7.67297143,12.7330435 C7.92230476,12.7330435 8.12449524,12.9333913 8.12449524,13.1817391 C8.12449524,13.4311304 7.92230476,13.6314783 7.67297143,13.6314783" id="Fill-9" fill="#FFFFFF"></path>
                    <g id="Group-13" transform="translate(0.000000, 0.710191)">
                        <mask id="mask-2" fill="white">
                            <use xlink:href="#path-1"></use>
                        </mask>
                        <g id="Clip-12"></g>
                        <path d="M1.22969524,20.3387478 C1.11026667,20.3387478 0.992933333,20.2917913 0.905980952,20.2030957 C0.771885714,20.0653565 0.740457143,19.8587478 0.826361905,19.6876174 L2.99702857,15.3707478 C1.14274286,13.8535304 0.0553142857,11.6361391 -0.00020952381,9.22987826 C-0.00020952381,4.31926957 4.85969524,0.333182609 10.833219,0.333182609 C16.8056952,0.333182609 21.6656,4.31926957 21.6656,9.21944348 C21.6656,9.4677913 21.4634095,9.66918261 21.2140762,9.66918261 C20.9647429,9.66918261 20.7625524,9.4677913 20.7625524,9.21944348 C20.7625524,4.81596522 16.3080762,1.23266087 10.833219,1.23266087 C5.35731429,1.23266087 0.902838095,4.81596522 0.902838095,9.21944348 C0.954171429,11.4639652 2.02274286,13.5331826 3.83617143,14.8834435 C4.01112381,15.0138783 4.06769524,15.2507478 3.96921905,15.4458783 L2.21340952,18.9373565 L7.00521905,16.7157913 C7.23255238,16.6104 7.50074286,16.708487 7.60445714,16.9328348 C7.71026667,17.1582261 7.61179048,17.4253565 7.38550476,17.5307478 L1.4203619,20.2959652 C1.3596,20.3251826 1.29464762,20.3387478 1.22969524,20.3387478" id="Fill-11" fill="#FFFFFF" mask="url(#mask-2)"></path>
                    </g>
                    <g id="Group-16" transform="translate(7.333333, 10.101496)">
                        <mask id="mask-4" fill="white">
                            <use xlink:href="#path-3"></use>
                        </mask>
                        <g id="Clip-15"></g>
                        <path d="M9.83473333,9.9626087 C9.89968571,9.9626087 9.96568571,9.97721739 10.0254,10.0053913 L12.4307333,11.1198261 L11.6083524,9.48573913 C11.5109238,9.29165217 11.5674952,9.05478261 11.7424476,8.92434783 C12.7848286,8.148 13.399781,6.95843478 13.4291143,5.66034783 C13.4291143,3.12782609 10.8373048,1.0586087 7.65254286,1.0586087 C4.46673333,1.0586087 1.87492381,3.12782609 1.87492381,5.67078261 C1.87492381,8.21373913 4.46673333,10.2829565 7.65254286,10.2829565 C8.36387619,10.3017391 9.03854286,10.1827826 9.70378095,9.98243478 C9.74673333,9.96886957 9.79073333,9.9626087 9.83473333,9.9626087 M13.4144476,12.5222609 C13.3494952,12.5222609 13.2845429,12.5076522 13.223781,12.4794783 L9.79806667,10.8913043 C9.09930476,11.0853913 8.39111429,11.1928696 7.65149524,11.1813913 C3.96911429,11.1813913 0.97187619,8.7093913 0.97187619,5.67078261 C0.97187619,2.63217391 3.96911429,0.159130435 7.65254286,0.159130435 C11.3349238,0.159130435 14.3321619,2.63217391 14.3321619,5.67078261 C14.2986381,7.12852174 13.6648286,8.46730435 12.5784476,9.40643478 L13.817781,11.8711304 C13.9036857,12.0422609 13.8722571,12.2478261 13.7381619,12.3855652 C13.6512095,12.4753043 13.5338762,12.5222609 13.4144476,12.5222609" id="Fill-14" fill="#FFFFFF" mask="url(#mask-4)"></path>
                    </g>
                </g>
            </g>
        </g>
    </g>
</svg>