<svg id="contacto" xmlns="http://www.w3.org/2000/svg" viewBox="0 0 18.42 17.65"><defs><style>.cls-1{fill:#FFFFFF;}</style></defs><title>icono-contacto</title><g id="Interface-Essential_Help_headphones-customer-support" data-name="Interface-Essential / Help / headphones-customer-support"><g id="Group_218" data-name="Group 218"><g id="headphones-customer-support"><path class="cls-1" d="M16.85,20.72h-.78a.34.34,0,0,1,0-.68h.78c1.09,0,2.36-.51,2.36-2V16.39a.34.34,0,0,1,.67,0v1.68C19.88,19.65,18.66,20.72,16.85,20.72Z" transform="translate(-3.78 -3.84)"/><path class="cls-1" d="M19.55,16.73a1.12,1.12,0,0,1-1.11-1.11V10.35a.34.34,0,0,1,.33-.34h0a3.42,3.42,0,0,1,1.14,6.65A1,1,0,0,1,19.55,16.73Zm-.44-6v4.91a.44.44,0,0,0,.18.35.42.42,0,0,0,.4.06,2.75,2.75,0,0,0-.58-5.32Z" transform="translate(-3.78 -3.84)"/><path class="cls-1" d="M6.43,16.73a1,1,0,0,1-.37-.07A3.42,3.42,0,0,1,7.2,10h0a.34.34,0,0,1,.34.34v5.27a1.1,1.1,0,0,1-.47.9A1.07,1.07,0,0,1,6.43,16.73Zm.44-6A2.75,2.75,0,0,0,6.28,16a.43.43,0,0,0,.4-.05.45.45,0,0,0,.19-.36Z" transform="translate(-3.78 -3.84)"/><path class="cls-1" d="M18.77,11.84a.33.33,0,0,1-.33-.33V10a5.45,5.45,0,0,0-10.9,0v1.55a.34.34,0,0,1-.67,0V10a6.12,6.12,0,1,1,12.24,0v1.55A.34.34,0,0,1,18.77,11.84Z" transform="translate(-3.78 -3.84)"/><path class="cls-1" d="M15.69,21.49H12.6a1.11,1.11,0,1,1,0-2.22h3.09a.72.72,0,0,1,.72.72v.78A.72.72,0,0,1,15.69,21.49ZM12.6,20a.43.43,0,0,0-.43.43.44.44,0,0,0,.43.44h3.09a.05.05,0,0,0,.05-.05V20a0,0,0,0,0-.05,0Z" transform="translate(-3.78 -3.84)"/></g></g></g></svg>