<svg id="divisas" xmlns="http://www.w3.org/2000/svg" viewBox="0 0 19.85 19.85"><defs><style>.cls-1{fill:#fff;}</style></defs><title>icono-divisas</title><g id="Money-Payments-Finance_Currencies_currency-dollar-diamond" data-name="Money-Payments-Finance / Currencies / currency-dollar-diamond"><g id="Group_65" data-name="Group 65"><g id="currency-dollar-diamond"><path class="cls-1" d="M15.84,16.09a6.59,6.59,0,1,1,6.59-6.58A6.59,6.59,0,0,1,15.84,16.09Zm0-12.5a5.92,5.92,0,1,0,5.91,5.92A5.93,5.93,0,0,0,15.84,3.59Z" transform="translate(-2.57 -2.92)"/><path class="cls-1" d="M14.38,7.31a.34.34,0,0,1-.31-.2L12.75,4a.35.35,0,0,1,.18-.45.34.34,0,0,1,.44.18l1.32,3.07a.34.34,0,0,1-.17.45Z" transform="translate(-2.57 -2.92)"/><path class="cls-1" d="M13.28,8.44a.31.31,0,0,1-.13,0l-3.08-1.3a.34.34,0,1,1,.26-.62l3.08,1.3a.34.34,0,0,1,.18.44A.34.34,0,0,1,13.28,8.44Z" transform="translate(-2.57 -2.92)"/><path class="cls-1" d="M17.29,7.31l-.13,0A.35.35,0,0,1,17,6.84l1.33-3.07a.33.33,0,1,1,.61.27L17.6,7.11A.33.33,0,0,1,17.29,7.31Z" transform="translate(-2.57 -2.92)"/><path class="cls-1" d="M18.4,8.44a.34.34,0,0,1-.14-.65l3.09-1.3a.34.34,0,0,1,.44.18.34.34,0,0,1-.18.44l-3.08,1.3Z" transform="translate(-2.57 -2.92)"/><path class="cls-1" d="M13.06,15.44a.3.3,0,0,1-.13,0,.35.35,0,0,1-.18-.45l1.32-3.07a.35.35,0,0,1,.45-.18.34.34,0,0,1,.17.45l-1.32,3.07A.34.34,0,0,1,13.06,15.44Z" transform="translate(-2.57 -2.92)"/><path class="cls-1" d="M10.2,12.54a.33.33,0,0,1-.31-.2.34.34,0,0,1,.18-.44l3.08-1.3a.34.34,0,1,1,.26.62l-3.08,1.3A.3.3,0,0,1,10.2,12.54Z" transform="translate(-2.57 -2.92)"/><path class="cls-1" d="M18.62,15.44a.33.33,0,0,1-.31-.2L17,12.17a.35.35,0,0,1,.18-.45.34.34,0,0,1,.44.18L18.92,15a.34.34,0,0,1-.17.45A.3.3,0,0,1,18.62,15.44Z" transform="translate(-2.57 -2.92)"/><path class="cls-1" d="M21.48,12.54a.27.27,0,0,1-.13,0l-3.09-1.3a.33.33,0,0,1-.17-.44.34.34,0,0,1,.44-.18l3.08,1.3a.33.33,0,0,1-.13.64Z" transform="translate(-2.57 -2.92)"/><path class="cls-1" d="M15.84,12.76a3.26,3.26,0,1,1,3.25-3.25A3.26,3.26,0,0,1,15.84,12.76Zm0-5.84a2.59,2.59,0,1,0,2.58,2.59A2.58,2.58,0,0,0,15.84,6.92Z" transform="translate(-2.57 -2.92)"/><path class="cls-1" d="M5,9a.34.34,0,0,1-.24-.1L3.1,7.24a.33.33,0,0,1,.47-.47L5,8.2,6.43,6.77a.34.34,0,0,1,.48,0,.33.33,0,0,1,0,.47L5.24,8.91A.33.33,0,0,1,5,9Z" transform="translate(-2.57 -2.92)"/><path class="cls-1" d="M5,9a.34.34,0,0,1-.34-.34V7.84A4.51,4.51,0,0,1,9.17,3.33a.34.34,0,0,1,0,.68A3.83,3.83,0,0,0,5.34,7.84v.83A.34.34,0,0,1,5,9Z" transform="translate(-2.57 -2.92)"/><path class="cls-1" d="M21.67,19a.34.34,0,0,1-.24-.1L20,17.48l-1.43,1.43a.34.34,0,0,1-.48,0,.33.33,0,0,1,0-.47l1.67-1.67a.33.33,0,0,1,.47,0l1.67,1.67a.33.33,0,0,1,0,.47A.31.31,0,0,1,21.67,19Z" transform="translate(-2.57 -2.92)"/><path class="cls-1" d="M15.83,22.34a.34.34,0,0,1,0-.67,3.84,3.84,0,0,0,3.84-3.83V17a.34.34,0,1,1,.67,0v.83a4.49,4.49,0,0,1-4.51,4.5Z" transform="translate(-2.57 -2.92)"/><path class="cls-1" d="M8.74,22.77a6.17,6.17,0,1,1,1-12.26.35.35,0,0,1,.28.39.35.35,0,0,1-.39.28,5.5,5.5,0,1,0,4.49,4.49.34.34,0,1,1,.66-.12,6.17,6.17,0,0,1-3.24,6.53A6.3,6.3,0,0,1,8.74,22.77Z" transform="translate(-2.57 -2.92)"/><path class="cls-1" d="M8.75,14.43a.34.34,0,0,1-.33-.34v-.83a.34.34,0,1,1,.67,0v.83A.34.34,0,0,1,8.75,14.43Z" transform="translate(-2.57 -2.92)"/><path class="cls-1" d="M9.2,19.43H7.5a.34.34,0,0,1-.34-.34.34.34,0,0,1,.34-.34H9.2a.77.77,0,0,0,.76-.63.78.78,0,0,0-.47-.87l-1.72-.69a1.46,1.46,0,0,1,.54-2.81H10a.34.34,0,0,1,0,.68H8.31A.78.78,0,0,0,8,15.93l1.72.69a1.46,1.46,0,0,1-.54,2.81Z" transform="translate(-2.57 -2.92)"/><path class="cls-1" d="M8.75,20.26a.34.34,0,0,1-.33-.34v-.83a.34.34,0,1,1,.67,0v.83A.34.34,0,0,1,8.75,20.26Z" transform="translate(-2.57 -2.92)"/></g></g></g></svg>