<svg id="sobre" xmlns="http://www.w3.org/2000/svg" viewBox="0 0 17.53 11.58"><defs><style>.cls-1{fill:#fff;fill-rule:evenodd;}</style></defs><title>icono-sobre</title><path class="cls-1" d="M21.51,17a.35.35,0,0,1,0,.22,1.54,1.54,0,0,1-.4.73h0A1.55,1.55,0,0,1,20,18.4H5.51A1.5,1.5,0,0,1,4,17.23.43.43,0,0,1,4,17V8.34a1.51,1.51,0,0,1,.42-1l0,0a1.52,1.52,0,0,1,1.08-.45H20a1.55,1.55,0,0,1,1.08.44h0a1.51,1.51,0,0,1,.44,1.07V17ZM4.82,9l5,3.78h0l2.5,1.89a.68.68,0,0,0,.42.14.66.66,0,0,0,.42-.14l2.5-1.89h0l5-3.78v-.7a.67.67,0,0,0-.21-.49h0a.69.69,0,0,0-.49-.2H5.51a.7.7,0,0,0-.49.2l0,0a.7.7,0,0,0-.18.47V9Zm15.87,1-4.07,3.07,4.07,3.08V10.08Zm-4.76,3.59-2.26,1.71a1.52,1.52,0,0,1-.92.31,1.47,1.47,0,0,1-.91-.31L9.57,13.67,4.9,17.2a.52.52,0,0,0,.12.17.67.67,0,0,0,.49.21H20a.66.66,0,0,0,.49-.21h0a.76.76,0,0,0,.13-.17l-4.68-3.53Zm-7-.52L4.82,10.08v6.15Z" transform="translate(-3.99 -6.82)"/></svg>