<svg id="ubicacion" xmlns="http://www.w3.org/2000/svg" viewBox="0 0 14.71 18.37"><defs><style>.cls-1{fill:#fff;fill-rule:evenodd;}</style></defs><title>icono-ubicacion</title><path class="cls-1" d="M12.17,22.11c-.57-.66-1.2-1.35-1.84-2.06a53.89,53.89,0,0,1-3.84-4.57h0a7.46,7.46,0,0,1-1-2,7.14,7.14,0,0,1-.34-2.21,7.35,7.35,0,1,1,14.7,0h0a7.28,7.28,0,0,1-1.34,4.23,55.84,55.84,0,0,1-3.84,4.57c-.64.71-1.27,1.4-1.84,2.07a.43.43,0,0,1-.61,0,.12.12,0,0,1-.05-.05ZM12.5,8.34a2.9,2.9,0,0,0-2.91,2.91h0A2.91,2.91,0,1,0,12.5,8.34Zm-2.67.23a3.76,3.76,0,0,0-1.11,2.68h0A3.77,3.77,0,1,0,9.83,8.57ZM11,19.46c.53.6,1,1.17,1.52,1.71.46-.53,1-1.11,1.52-1.7A53.75,53.75,0,0,0,17.8,15a6.71,6.71,0,0,0,.88-1.78,6.45,6.45,0,0,0,.3-1.95h0a6.48,6.48,0,0,0-13,0,6.3,6.3,0,0,0,.3,1.94A6.62,6.62,0,0,0,7.2,15,54,54,0,0,0,11,19.46Z" transform="translate(-5.15 -3.89)"/></svg>