<?xml version="1.0" encoding="utf-8"?>
<!-- Generator: Adobe Illustrator 22.1.0, SVG Export Plug-In . SVG Version: 6.00 Build 0)  -->
<svg version="1.1" id="Capa_1" xmlns="http://www.w3.org/2000/svg" xmlns:xlink="http://www.w3.org/1999/xlink" x="0px" y="0px"
	 viewBox="0 0 397.1 165.5" style="enable-background:new 0 0 397.1 165.5;" xml:space="preserve">
<style type="text/css">
	.st0{fill:#FF6B00;}
	.st1{fill:#FFFFFF;}
</style>
<rect x="0.4" y="0.7" class="st0" width="396.7" height="165.5"/>
<g>
	<path class="st1" d="M42.1,104.6V45.2h11.3v21.2c1.9-3.1,6.5-5.8,12.8-5.8c12.4,0,19.6,9.7,19.6,22.4c0,13-7.9,22.7-20,22.7
		c-5.9,0-10.3-2.6-12.6-6.3v5.2H42.1z M63.8,70.9c-5.8,0-10.6,4.3-10.6,12.1c0,7.8,4.8,12.2,10.6,12.2c5.9,0,10.5-4.4,10.5-12.2
		S69.7,70.9,63.8,70.9z"/>
	<path class="st1" d="M101.5,79.8l10.4-1.6c2.4-0.3,3.2-1.6,3.2-3.1c0-3.1-2.3-5.6-7.2-5.6c-5,0-7.8,3.2-8.1,7l-10.2-2.2
		c0.7-6.7,6.8-14.1,18.2-14.1c13.4,0,18.4,7.7,18.4,16.3v21.1c0,2.3,0.3,5.3,0.5,6.8h-10.5c-0.3-1.1-0.4-3.5-0.4-5.2
		c-2.2,3.4-6.2,6.4-12.5,6.4c-9,0-14.6-6.2-14.6-12.9C88.8,85.1,94.4,80.8,101.5,79.8z M115.1,87.1v-1.9l-9.6,1.5
		c-2.9,0.4-5.3,2.1-5.3,5.4c0,2.5,1.8,5,5.5,5C110.6,97.1,115.1,94.7,115.1,87.1z"/>
	<path class="st1" d="M142.7,104.7h-11.5V60.8h11.1v6.1c2.6-4.5,7.7-6.5,12.2-6.5c10.5,0,15.3,7.6,15.3,17.1v27.3h-11.5V79.5
		c0-4.8-2.3-8.6-7.8-8.6c-5,0-7.9,4-7.9,9V104.7z"/>
	<path class="st1" d="M200.5,73.2c-1.3-0.3-2.4-0.4-3.4-0.4c-5.9,0-10.9,2.9-10.9,12.2v19.8h-11.5V60.9h11.1v6.8
		c2.6-5.7,8.4-6.8,12.1-6.8c0.9,0,1.8,0.1,2.7,0.2V73.2z"/>
	<path class="st1" d="M242.7,91.8c-2.2,7.3-8.9,13.4-19.3,13.4c-11.6,0-21.9-8.4-21.9-22.7c0-13.5,10-22.3,20.9-22.3
		c13.1,0,20.9,8.4,20.9,22c0,1.6-0.2,3.4-0.2,3.5h-30.3c0.3,5.6,5,9.7,10.7,9.7c5.3,0,8.3-2.7,9.7-6.5L242.7,91.8z M232,77.9
		c-0.2-4.2-2.9-8.4-9.5-8.4c-5.9,0-9.2,4.5-9.5,8.4H232z"/>
	<path class="st1" d="M256.9,103.5c0.8,4.7,4.5,8,9.9,8c7.2,0,11.3-3.6,11.3-11.8v-3.1c-1.7,2.8-5.7,5.4-11.8,5.4
		c-11.3,0-19.7-8.7-19.7-20.6c0-11.2,8.1-20.7,19.7-20.7c6.7,0,10.6,2.9,12.1,5.8v-5.8h11v38.6c0,11.6-6.3,22.2-22.2,22.2
		c-11.6,0-19.4-7.2-20.6-15.3L256.9,103.5z M278.3,81.4c0-6.5-4.5-10.7-10-10.7c-5.7,0-10.2,4.1-10.2,10.7c0,6.6,4.2,10.8,10.2,10.8
		C274.2,92.2,278.3,88,278.3,81.4z"/>
	<path class="st1" d="M294.8,104.8V60.8h11.5v44.1H294.8z"/>
	<path class="st1" d="M354.9,82.7c0,13-9.6,22.5-22.2,22.5c-12.7,0-22.2-9.5-22.2-22.5c0-13.1,9.6-22.5,22.2-22.5
		C345.3,60.2,354.9,69.6,354.9,82.7z M343.4,82.7c0-8-5.2-12.1-10.8-12.1c-5.6,0-10.8,4.1-10.8,12.1c0,7.9,5.2,12.1,10.8,12.1
		C338.3,94.8,343.4,90.7,343.4,82.7z"/>
</g>
</svg>
